<svg xmlns="http://www.w3.org/2000/svg" viewBox="0 0 200 200" fill="none" stroke="currentColor" stroke-width="0.5" opacity="0.3"><circle cx="100" cy="100" r="90" /><circle cx="100" cy="100" r="70" /><circle cx="100" cy="100" r="50" /><circle cx="100" cy="100" r="30" /><circle cx="100" cy="100" r="10" /><path d="M100 10 L100 190 M10 100 L190 100 M50 50 L150 150 M150 50 L50 150 M30 100 L170 100 M100 30 L100 170" /><path d="M100 20 L120 40 L100 60 L80 40 Z" /><path d="M100 140 L120 160 L100 180 L80 160 Z" /><path d="M20 100 L40 120 L60 100 L40 80 Z" /><path d="M140 100 L160 120 L180 100 L160 80 Z" /></svg> 
